# xmcd
#
# Track frame offsets: 
#        150
#        14324
#        29277
#        48609
#        67154
#        83719
#        95834
#        110139
#        127813
#        146302
#        158942
#        171695
#
# Disc length: 2489 seconds
#
# Revision: 0
# Processed by: cddbd v1.5.1PL0 Copyright (c) Steve Scherf et al.
# Submitted via: ExactAudioCopy v0.95a4
#
DISCID=aa09b70c
DTITLE=Sawyer Brown - Mission Temple Fireworks Stand
DYEAR=2005
DGENRE=Country
TTITLE0=Mission Temple Fireworks Stand
TTITLE1=Tarzan And Jane
TTITLE2=They Don't Understand
TTITLE3=With You Daddy
TTITLE4=Your Faith
TTITLE5=Keep Your Hands To Yourself
TTITLE6=Ole' Kentuck
TTITLE7=All I Want Is You
TTITLE8=One Little Heartbeat At A Time
TTITLE9=Ladies Man
TTITLE10=There Was A Time
TTITLE11=Tryin' To Find (A Way To Make It Last)
EXTD=
EXTT0=
EXTT1=
EXTT2=
EXTT3=
EXTT4=
EXTT5=
EXTT6=
EXTT7=
EXTT8=
EXTT9=
EXTT10=
EXTT11=
PLAYORDER=
